<?xml version="1.0" ?><!DOCTYPE svg  PUBLIC '-//W3C//DTD SVG 1.1//EN'  'http://www.w3.org/Graphics/SVG/1.1/DTD/svg11.dtd'><svg enable-background="new 0 0 32 32" height="32px" version="1.1" viewBox="0 0 32 32" width="32px" xml:space="preserve" xmlns="http://www.w3.org/2000/svg" xmlns:xlink="http://www.w3.org/1999/xlink"><g id="upload_laptop_arrow"><g><g id="laptop_3_"><g><g><g><g><path d="M28.5,26V9.5c0-0.553-0.447-1-1-1h-23c-0.553,0-1,0.447-1,1V26H28.5z" fill="#FFFFFF"/></g></g><g><g><path d="M3.5,26C3.224,26,3,25.776,3,25.5v-16C3,8.673,3.673,8,4.5,8h5.001c0.276,0,0.5,0.224,0.5,0.5         S9.777,9,9.501,9H4.5C4.225,9,4,9.225,4,9.5v16C4,25.776,3.776,26,3.5,26z" fill="#455A64"/><path d="M28.5,26c-0.276,0-0.5-0.224-0.5-0.5v-16C28,9.225,27.775,9,27.5,9h-5C22.224,9,22,8.776,22,8.5         S22.224,8,22.5,8h5C28.327,8,29,8.673,29,9.5v16C29,25.776,28.776,26,28.5,26z" fill="#455A64"/></g></g><g><g><rect fill="#A9E4FF" height="16" width="22" x="5" y="10"/></g></g></g><g><g><path d="M12.5,27.5h-11c0,1.104,0.896,2,2,2h25c1.104,0,2-0.896,2-2h-11H12.5z" fill="#78909C"/></g><g><path d="M28.5,30h-25C2.121,30,1,28.879,1,27.5C1,27.224,1.224,27,1.5,27h11c0.276,0,0.5,0.224,0.5,0.5        S12.776,28,12.5,28H2.086c0.206,0.582,0.762,1,1.414,1h25c0.652,0,1.208-0.418,1.414-1H19.5c-0.276,0-0.5-0.224-0.5-0.5        s0.224-0.5,0.5-0.5h11c0.276,0,0.5,0.224,0.5,0.5C31,28.879,29.879,30,28.5,30z" fill="#455A64"/></g></g></g></g></g><g><g id="transfer_10_"><g><polygon fill="#1DE9B6" points="16.002,1.5 11.502,8.5 13.502,8.5 13.502,19.5 18.502,19.5 18.502,8.5 20.502,8.5     "/></g></g><g id="transfer_9_"><g><path d="M13.502,20c-0.276,0-0.5-0.224-0.5-0.5V9h-1.5c-0.183,0-0.352-0.1-0.438-0.261      c-0.088-0.16-0.081-0.355,0.018-0.51l4.5-7c0.186-0.285,0.656-0.285,0.842,0l4.5,7c0.099,0.154,0.105,0.35,0.018,0.51      C20.854,8.9,20.685,9,20.502,9h-1.5v8.5c0,0.276-0.224,0.5-0.5,0.5s-0.5-0.224-0.5-0.5v-9c0-0.276,0.224-0.5,0.5-0.5h1.084      l-3.584-5.575L12.418,8h1.084c0.276,0,0.5,0.224,0.5,0.5v11C14.002,19.776,13.778,20,13.502,20z" fill="#455A64"/></g></g><circle cx="18.5" cy="19.5" fill="#455A64" r="0.5"/></g></g></svg>